<?xml version="1.0" encoding="utf-8"?>
<!-- Svg Vector Icons : http://www.onlinewebfonts.com/icon -->
<!DOCTYPE svg PUBLIC "-//W3C//DTD SVG 1.1//EN" "http://www.w3.org/Graphics/SVG/1.1/DTD/svg11.dtd">
<svg version="1.1" xmlns="http://www.w3.org/2000/svg" xmlns:xlink="http://www.w3.org/1999/xlink" x="0px" y="0px" viewBox="0 0 1000 1000" enable-background="new 0 0 1000 1000" xml:space="preserve">
<metadata> Svg Vector Icons : http://www.onlinewebfonts.com/icon </metadata>
<g><path d="M499.7,488.4c-51.1,0-92.7-41.6-92.7-92.7c0-51.1,41.6-92.7,92.7-92.7c51.1,0,92.7,41.6,92.7,92.7S550.8,488.4,499.7,488.4z"/><path d="M500,10C235.2,10,20.7,229.4,20.7,500c0,270.6,214.5,490,479.3,490c264.7,0,479.3-219.4,479.3-490C979.3,229.4,764.7,10,500,10z M516.7,863.1c-4.4,5-10.7,7.9-17.4,7.9c-7-0.2-13-2.9-17.4-7.9c-10.2-11.6-248.8-286.1-248.8-467c0-147.2,119.6-267,266.6-267c146.4,0,266,119.7,266.6,266.9C767.1,577,526.9,851.5,516.7,863.1z"/><path d="M499.7,488.4"/></g>
</svg>