<?xml version="1.0" encoding="utf-8"?>
<!-- Svg Vector Icons : http://www.onlinewebfonts.com/icon -->
<!DOCTYPE svg PUBLIC "-//W3C//DTD SVG 1.1//EN" "http://www.w3.org/Graphics/SVG/1.1/DTD/svg11.dtd">
<svg version="1.1" xmlns="http://www.w3.org/2000/svg" xmlns:xlink="http://www.w3.org/1999/xlink" x="0px" y="0px" viewBox="0 0 1000 1000" enable-background="new 0 0 1000 1000" xml:space="preserve">
<metadata> Svg Vector Icons : http://www.onlinewebfonts.com/icon </metadata>
<g><path d="M500,10C229.4,10,10,229.4,10,500c0,270.6,219.4,490,490,490c270.6,0,490-219.4,490-490C990,229.4,770.6,10,500,10z M707,661.1c-11,17.4-45.4,51.9-45.4,51.9s-13.7,9.3-44.6,1.9c-30.9-7.3-103.3-24.6-202.4-123.7c-91.7-91.7-132-215-132-215s-2.9-21.5,10.1-40.6c13.1-19.1,51.7-68.1,80.8-35.7c30.4,33.8,56,70.7,56,70.7s21.1,29,2.5,47.8c-12.3,12.4-29.1,41.9-20.4,54.4c8.7,12.6,115.7,115.7,115.7,115.7s12.2,10.7,20.4,6.8c8.2-3.9,47.6-27.2,47.6-27.2s16.3-5.5,34,6.8c17.9,12.4,73,49,73,49S718,643.6,707,661.1z"/></g>
</svg>